<svg id="Lager_1" data-name="Lager 1" xmlns="http://www.w3.org/2000/svg" viewBox="0 0 245.45 110.7"><defs><style>.cls-1,.cls-2{fill:#1d1d1b;}.cls-2{fill-rule:evenodd;}</style></defs><title>Logga</title><path class="cls-1" d="M321.09,430.37a12.33,12.33,0,0,1-8.66,4.5c-2,.21-4.05.07-6,.38,4.85-2.34,9-5.58,14.7-4.88Z" transform="translate(-168.98 -357.59)"/><path class="cls-1" d="M319.83,429.68c-5,.91-7.5-2.69-9.24-6.8,2.25,1.66,5.29,1.8,7.37,3.72a7,7,0,0,1,1.87,3.07Z" transform="translate(-168.98 -357.59)"/><path class="cls-1" d="M312,429.59c-2.91,2.3-6.29,2.61-9.83,1.86-2-.46-3.93-1.31-5.94-1.6,5.5-1,10.4-3.1,15.77-.25Z" transform="translate(-168.98 -357.59)"/><path class="cls-2" d="M310.85,428.34c-5.33-.82-6.74-5.59-7.32-10.3,2.73,3.72,7.07,5.07,7.32,10.3Z" transform="translate(-168.98 -357.59)"/><path class="cls-1" d="M303,425.57c-3.44,1.52-6.76.79-9.92-1a57.62,57.62,0,0,0-5.14-3.28c5.67.39,10.8-.23,15.06,4.31Z" transform="translate(-168.98 -357.59)"/><path class="cls-2" d="M302.3,423.89c-5-2.54-5-7.78-4.29-12.66,1.67,4.61,5.39,7.27,4.29,12.66Z" transform="translate(-168.98 -357.59)"/><path class="cls-1" d="M295.5,418.74c-3.65.61-6.56-1-9-3.6a44.94,44.94,0,0,0-3.9-4.43c5.38,1.69,10.2,2.45,12.91,8Z" transform="translate(-168.98 -357.59)"/><path class="cls-2" d="M295.25,416.83c-4-3.9-2.64-9-.71-13.63.37,5,3.11,8.6.71,13.63Z" transform="translate(-168.98 -357.59)"/><path class="cls-1" d="M290.16,410c-3.56-.27-5.82-2.51-7.43-5.54a37.51,37.51,0,0,0-2.48-5.06c4.75,2.76,8.88,4.63,9.92,10.59Z" transform="translate(-168.98 -357.59)"/><path class="cls-2" d="M290.42,408c-2.73-4.79-.1-9.41,2.9-13.32-1,4.9.59,9-2.9,13.32Z" transform="translate(-168.98 -357.59)"/><path class="cls-1" d="M287.38,400.23c-3.24-1-4.76-3.64-5.5-6.82a32.37,32.37,0,0,0-1.06-5.26c3.9,3.6,7.11,6.27,6.55,12.08Z" transform="translate(-168.98 -357.59)"/><path class="cls-2" d="M288.13,398.42c-1.31-5.21,2.35-9,6.15-11.94-2.19,4.39-1.88,8.67-6.15,11.94Z" transform="translate(-168.98 -357.59)"/><path class="cls-1" d="M287.24,390.38c-2.78-1.66-3.52-4.42-3.42-7.51a29.08,29.08,0,0,0,.32-5.11c2.88,4.21,5.07,7.37,3.1,12.62Z" transform="translate(-168.98 -357.59)"/><path class="cls-2" d="M288.4,388.84c.12-5.21,4.52-7.86,8.82-9.7-3.2,3.53-4.09,7.59-8.82,9.7Z" transform="translate(-168.98 -357.59)"/><path class="cls-1" d="M289.55,381.17c-2.2-2.15-2.17-4.86-1.3-7.64a27.2,27.2,0,0,0,1.6-4.61c1.7,4.58,2.82,7.92-.3,12.25Z" transform="translate(-168.98 -357.59)"/><path class="cls-2" d="M291,380c1.46-4.8,6.25-6.19,10.72-6.81-3.9,2.42-5.85,5.91-10.72,6.81Z" transform="translate(-168.98 -357.59)"/><path class="cls-1" d="M293.74,373.48c-1.54-2.53-.78-5,.77-7.35a27.14,27.14,0,0,0,2.74-3.8c.42,4.71.48,7.95-3.51,11.16Z" transform="translate(-168.98 -357.59)"/><path class="cls-2" d="M295.46,372.74c2.66-4.11,7.56-4.17,11.94-3.61-4.3,1.19-7.16,3.9-11.94,3.61Z" transform="translate(-168.98 -357.59)"/><path class="cls-1" d="M300,367.28c-.79-2.64.59-4.66,2.61-6.27a26.44,26.44,0,0,0,3.52-2.57c-.87,4.32-1.75,7-6.12,8.83Z" transform="translate(-168.98 -357.59)"/><path class="cls-2" d="M301.74,367c3.53-3,8.05-1.76,11.91-.15-4.22-.09-7.64,1.55-11.91.15Z" transform="translate(-168.98 -357.59)"/><path class="cls-1" d="M307.19,363.39c-.05-2.53,1.8-3.86,4-4.64a28.11,28.11,0,0,0,3.85-1.16c-2,3.49-3.57,5.37-7.84,5.8Z" transform="translate(-168.98 -357.59)"/><path class="cls-1" d="M322.79,430.37a12.34,12.34,0,0,0,8.66,4.5c2,.21,4.05.07,6,.38-4.85-2.34-9-5.58-14.7-4.88Z" transform="translate(-168.98 -357.59)"/><path class="cls-1" d="M324.06,429.68c5,.91,7.5-2.69,9.24-6.8-2.25,1.66-5.29,1.8-7.37,3.72a7,7,0,0,0-1.87,3.07Z" transform="translate(-168.98 -357.59)"/><path class="cls-1" d="M331.93,429.59c2.91,2.3,6.29,2.61,9.83,1.86,2-.46,3.93-1.31,5.94-1.6-5.5-1-10.4-3.1-15.77-.25Z" transform="translate(-168.98 -357.59)"/><path class="cls-2" d="M333,428.34c5.33-.82,6.73-5.59,7.32-10.3-2.73,3.72-7.07,5.07-7.32,10.3Z" transform="translate(-168.98 -357.59)"/><path class="cls-1" d="M340.84,425.57c3.44,1.52,6.76.79,9.92-1a57.41,57.41,0,0,1,5.14-3.28c-5.67.39-10.8-.23-15.06,4.31Z" transform="translate(-168.98 -357.59)"/><path class="cls-2" d="M341.59,423.89c5-2.54,5-7.78,4.29-12.66-1.67,4.61-5.39,7.27-4.29,12.66Z" transform="translate(-168.98 -357.59)"/><path class="cls-1" d="M348.38,418.74c3.65.61,6.56-1,9-3.6a44.86,44.86,0,0,1,3.9-4.43c-5.38,1.69-10.2,2.45-12.92,8Z" transform="translate(-168.98 -357.59)"/><path class="cls-2" d="M348.64,416.83c4-3.9,2.64-9,.71-13.63-.37,5-3.11,8.6-.71,13.63Z" transform="translate(-168.98 -357.59)"/><path class="cls-1" d="M353.73,410c3.56-.27,5.82-2.51,7.43-5.54a37.38,37.38,0,0,1,2.48-5.06c-4.75,2.76-8.87,4.63-9.92,10.59Z" transform="translate(-168.98 -357.59)"/><path class="cls-2" d="M353.47,408c2.73-4.79.1-9.41-2.9-13.32,1,4.9-.59,9,2.9,13.32Z" transform="translate(-168.98 -357.59)"/><path class="cls-1" d="M356.51,400.23c3.24-1,4.76-3.64,5.5-6.82a32.35,32.35,0,0,1,1.06-5.26c-3.9,3.6-7.11,6.27-6.55,12.08Z" transform="translate(-168.98 -357.59)"/><path class="cls-2" d="M355.76,398.42c1.31-5.21-2.35-9-6.15-11.94,2.19,4.39,1.88,8.67,6.15,11.94Z" transform="translate(-168.98 -357.59)"/><path class="cls-1" d="M356.65,390.38c2.78-1.66,3.53-4.42,3.42-7.51a29,29,0,0,1-.32-5.11c-2.88,4.21-5.07,7.37-3.1,12.62Z" transform="translate(-168.98 -357.59)"/><path class="cls-2" d="M355.49,388.84c-.12-5.21-4.52-7.86-8.83-9.7,3.2,3.53,4.09,7.59,8.83,9.7Z" transform="translate(-168.98 -357.59)"/><path class="cls-1" d="M354.33,381.17c2.2-2.15,2.18-4.86,1.3-7.64a27.16,27.16,0,0,1-1.6-4.61c-1.7,4.58-2.82,7.92.3,12.25Z" transform="translate(-168.98 -357.59)"/><path class="cls-2" d="M352.85,380c-1.46-4.8-6.25-6.19-10.72-6.81,3.9,2.42,5.85,5.91,10.72,6.81Z" transform="translate(-168.98 -357.59)"/><path class="cls-1" d="M350.14,373.48c1.54-2.53.78-5-.77-7.35a27.13,27.13,0,0,1-2.74-3.8c-.42,4.71-.48,7.95,3.51,11.16Z" transform="translate(-168.98 -357.59)"/><path class="cls-2" d="M348.42,372.74c-2.65-4.11-7.56-4.17-11.93-3.61,4.3,1.19,7.16,3.9,11.93,3.61Z" transform="translate(-168.98 -357.59)"/><path class="cls-1" d="M343.93,367.28c.79-2.64-.6-4.66-2.61-6.27a26.44,26.44,0,0,1-3.51-2.57c.87,4.32,1.75,7,6.12,8.83Z" transform="translate(-168.98 -357.59)"/><path class="cls-2" d="M342.14,367c-3.53-3-8.05-1.76-11.91-.15,4.22-.09,7.64,1.55,11.91.15Z" transform="translate(-168.98 -357.59)"/><path class="cls-1" d="M336.69,363.39c.05-2.53-1.8-3.86-4-4.64a28.12,28.12,0,0,1-3.85-1.16c2,3.49,3.57,5.37,7.84,5.8Z" transform="translate(-168.98 -357.59)"/><path class="cls-1" d="M193,413.63v1.23h-2.62v20.36l2.62,0v1.23h-8v-1.23h2.65l0-19.29-6.85,17.42h-1l-6.95-17.16v17.74q0,1.29.71,1.29h2.16v1.23H169v-1.23h1.91q.61,0,.61-1.29V414.82l-2.55,0v-1.23h5.78l6.3,15.61,6.17-15.61Z" transform="translate(-168.98 -357.59)"/><path class="cls-1" d="M214.5,436.41h-8.08v-1.23h2.68l-1.87-6.46h-6.82l-1.68,5.69a.82.82,0,0,0,.68.66,11.15,11.15,0,0,0,1.94.11v1.23h-6.66v-1.23a6.7,6.7,0,0,0,1.65-.15,1.85,1.85,0,0,0,.87-.53l6.33-21.13h2l6.5,21.81h2.42Zm-10.73-19.61-3,10.73h6.17Z" transform="translate(-168.98 -357.59)"/><path class="cls-1" d="M221.81,435.21l2.75,0v1.23h-8.34v-1.23H219V414.82l-2.75,0v-1.23H227a6.69,6.69,0,0,1,4.06,1.05,3.72,3.72,0,0,1,1.41,3.18v2.52a3.82,3.82,0,0,1-1.1,2.88,6.55,6.55,0,0,1-3.88,1.36,8.76,8.76,0,0,1,2.29.42,3.8,3.8,0,0,1,1.44.86,2.89,2.89,0,0,1,.74,1.28,7,7,0,0,1,.24,1.65l.1,4.49q0,1.49.71,1.84a1.71,1.71,0,0,0,.74.13,6.83,6.83,0,0,0,1.26-.16l.1,1.16a4.47,4.47,0,0,1-.6.13,8.91,8.91,0,0,1-1.36.11,3.29,3.29,0,0,1-1.41-.24l-1-.4a2.55,2.55,0,0,1-.79-.48,1.93,1.93,0,0,1-.52-.86,5.76,5.76,0,0,1-.21-1.52l-.1-4.3a6.93,6.93,0,0,0-.23-1.65,2.37,2.37,0,0,0-.61-1.08,2.45,2.45,0,0,0-1.07-.58,5.92,5.92,0,0,0-1.55-.18h-3.88Zm4-11.18a4.14,4.14,0,0,0,2.86-.84,3.47,3.47,0,0,0,.92-2.68v-2.2a3.53,3.53,0,0,0-.87-2.67,4.06,4.06,0,0,0-2.84-.82h-4.07V424Z" transform="translate(-168.98 -357.59)"/><path class="cls-1" d="M245,435.18v1.23h-8.11v-1.23h2.55V414.82l-2.55,0v-1.23H245v1.23h-2.75v10l7.82-8.92a.86.86,0,0,0,.13-.42.46.46,0,0,0-.32-.45,5.52,5.52,0,0,0-2-.23v-1.23h7.56v1.23a7.14,7.14,0,0,0-2.07.24,5.59,5.59,0,0,0-1.58.82q-2,2.52-3.25,4t-1.63,1.86a1.37,1.37,0,0,0-.48.94,1.12,1.12,0,0,0,.23.65,13.18,13.18,0,0,1,1.81,1.44,10.45,10.45,0,0,1,1.24,1.45,12.1,12.1,0,0,1,1,1.62l.94,1.92a15.63,15.63,0,0,1,.61,1.5q.29.82.52,1.57t.48,1.75a2.17,2.17,0,0,0,1.16.55c.17,0,.4,0,.69,0l1,0v1.23h-8.37v-1.23h2.62q-.26-1-.48-1.7t-.52-1.55a13,13,0,0,0-.61-1.47l-.68-1.44a12.47,12.47,0,0,0-.63-1.2,9.21,9.21,0,0,0-.81-1.13,11.23,11.23,0,0,0-1.24-1.24l-3.13.13v9.63Z" transform="translate(-168.98 -357.59)"/><path class="cls-1" d="M270.9,435.37a5.86,5.86,0,0,1-4.06,1.29q-1.07,0-2-.06t-1.7-.18q-.81-.11-1.57-.26l-1.57-.27a1,1,0,0,0-.29-.07.25.25,0,0,0-.29.23c0,.22-.08.37-.1.45h-.9v-6.92h1.29v2.2a2.45,2.45,0,0,0,.53,1.55,4.2,4.2,0,0,0,1.49,1.15,9.19,9.19,0,0,0,2.23.73,13.88,13.88,0,0,0,2.76.26q3.68,0,3.68-3.36v-2.46a5.62,5.62,0,0,0-.15-1.36,2.18,2.18,0,0,0-.55-1,3,3,0,0,0-1.16-.7,8.75,8.75,0,0,0-2-.4h-2.75a8.23,8.23,0,0,1-2.57-.34,3.86,3.86,0,0,1-1.62-1,3.38,3.38,0,0,1-.82-1.57,9,9,0,0,1-.23-2.1v-3a4.8,4.8,0,0,1,1.26-3.57,4.89,4.89,0,0,1,3.59-1.24q1,0,1.84.06t1.58.18q.74.11,1.44.26l1.47.31a.94.94,0,0,0,.48.19.32.32,0,0,0,.29-.16,1.12,1.12,0,0,0,.19-.45h.87V420h-1.29v-1.91a2.32,2.32,0,0,0-.5-1.45,4.22,4.22,0,0,0-1.39-1.12,7.77,7.77,0,0,0-2.08-.71,12.84,12.84,0,0,0-2.55-.24q-3.39,0-3.39,3.39v2.58a3.11,3.11,0,0,0,.23,1.28,2,2,0,0,0,.69.82,3.59,3.59,0,0,0,1.2.5,12.46,12.46,0,0,0,1.73.27h2.84a12.43,12.43,0,0,1,2.68.57,4,4,0,0,1,1.6,1,3.05,3.05,0,0,1,.76,1.44,8.71,8.71,0,0,1,.19,1.94v3.3A4.78,4.78,0,0,1,270.9,435.37Z" transform="translate(-168.98 -357.59)"/><path class="cls-1" d="M174.15,465.43a3.65,3.65,0,0,0,3.36,1.66,15.22,15.22,0,0,0,3.46-.36,3.13,3.13,0,0,0,2.13-1.42v-6h-3.68v-1.2h7.82v1.23h-1.29V465l0,1.52-.16.16a25.52,25.52,0,0,1-4.06,1.15,24,24,0,0,1-4.7.44,6.46,6.46,0,0,1-5.14-2.07,8.49,8.49,0,0,1-1.81-5.78v-7.59a9.51,9.51,0,0,1,.5-3.15,7.58,7.58,0,0,1,1.41-2.49,6.36,6.36,0,0,1,2.15-1.63,6.29,6.29,0,0,1,2.7-.58q1.16,0,2.1,0a15.3,15.3,0,0,1,1.71.18q.78.13,1.47.31t1.44.4a1.22,1.22,0,0,0,.48.16.33.33,0,0,0,.32-.23,1.74,1.74,0,0,0,.19-.58h.9v6.27l-1.29,0,0-1.91a6,6,0,0,0-1.36-1.65,6.92,6.92,0,0,0-1.76-1.08,9,9,0,0,0-2-.58,11.58,11.58,0,0,0-2-.18,3.22,3.22,0,0,0-3,1.71,10,10,0,0,0-1,4.85v7.79A9.38,9.38,0,0,0,174.15,465.43Z" transform="translate(-168.98 -357.59)"/><path class="cls-1" d="M201.16,445.25h6.75v1.23c-.45,0-.81,0-1.08,0a4.28,4.28,0,0,0-.66.1,1.26,1.26,0,0,0-.47.23l-.5.39-5.53,11v8.66l2.84,0V468H194V466.8h2.84v-8.24l-5.95-12.09h-2.52v-1.23h8.21v1.23h-2.49L199,456.72l4.56-9.11a.89.89,0,0,0-.5-.91,5.13,5.13,0,0,0-1.86-.23Z" transform="translate(-168.98 -357.59)"/><path class="cls-1" d="M233.59,445.25v1.23H231v20.36l2.62,0V468h-8V466.8h2.65l0-19.29-6.85,17.42h-1l-6.95-17.16v17.74q0,1.29.71,1.29h2.16V468h-6.72V466.8h1.91q.61,0,.61-1.29V446.45l-2.55,0v-1.23h5.78l6.3,15.61,6.17-15.61Z" transform="translate(-168.98 -357.59)"/><path class="cls-1" d="M251.43,447.25q0-.78-.68-.78h-2.13v-1.23h6.75v1.23h-2q-.65,0-.65.78v20.87h-1.36l-.29-.36-12-19.94v18.1a1.09,1.09,0,0,0,.16.66.74.74,0,0,0,.61.21h2.1V468h-6.82V466.8h2q.71,0,.71-.87V446.45l-2.68,0v-1.23h5.82q1.32,2.33,2.62,4.56t2.65,4.43q1.36,2.2,2.65,4.43t2.62,4.56Z" transform="translate(-168.98 -357.59)"/><path class="cls-1" d="M274.81,468h-8.08V466.8h2.68l-1.87-6.46h-6.82L259,466a.82.82,0,0,0,.68.66,11.15,11.15,0,0,0,1.94.11V468H255V466.8a6.7,6.7,0,0,0,1.65-.15,1.85,1.85,0,0,0,.87-.53L263.85,445h2l6.5,21.81h2.42Zm-10.73-19.61-3,10.73h6.17Z" transform="translate(-168.98 -357.59)"/><path class="cls-1" d="M289.57,467a5.86,5.86,0,0,1-4.06,1.29q-1.07,0-2-.06t-1.7-.18q-.81-.11-1.57-.26l-1.57-.27a1,1,0,0,0-.29-.07.25.25,0,0,0-.29.23c0,.22-.08.37-.1.45h-.9v-6.92h1.29v2.2A2.44,2.44,0,0,0,279,465a4.2,4.2,0,0,0,1.49,1.15,9.19,9.19,0,0,0,2.23.73,13.87,13.87,0,0,0,2.76.26q3.68,0,3.68-3.36v-2.46a5.62,5.62,0,0,0-.15-1.36,2.18,2.18,0,0,0-.55-1,3,3,0,0,0-1.16-.7,8.75,8.75,0,0,0-2-.4h-2.75a8.24,8.24,0,0,1-2.57-.34,3.86,3.86,0,0,1-1.62-1,3.38,3.38,0,0,1-.82-1.57,9,9,0,0,1-.23-2.1v-3a4.8,4.8,0,0,1,1.26-3.57,4.89,4.89,0,0,1,3.59-1.24q1,0,1.84.06t1.58.18q.74.11,1.44.26l1.47.31a.94.94,0,0,0,.48.19.32.32,0,0,0,.29-.16,1.12,1.12,0,0,0,.19-.45h.87v6.24H289v-1.91a2.32,2.32,0,0,0-.5-1.45,4.21,4.21,0,0,0-1.39-1.11,7.75,7.75,0,0,0-2.08-.71,12.81,12.81,0,0,0-2.55-.24q-3.39,0-3.39,3.39v2.58a3.11,3.11,0,0,0,.23,1.28,2,2,0,0,0,.69.82,3.59,3.59,0,0,0,1.2.5,12.43,12.43,0,0,0,1.73.27h2.84a12.44,12.44,0,0,1,2.68.57,4,4,0,0,1,1.6,1,3,3,0,0,1,.76,1.44A8.71,8.71,0,0,1,291,460v3.3A4.78,4.78,0,0,1,289.57,467Z" transform="translate(-168.98 -357.59)"/><path class="cls-1" d="M301.13,466.8V468h-8V466.8h2.58V446.45l-2.58,0v-1.23h8v1.23h-2.59v20.36Z" transform="translate(-168.98 -357.59)"/><path class="cls-1" d="M303,468V466.8h2.58V446.45l-2.58,0v-1.23h15.83l.19,5.59h-1.29v-2A2,2,0,0,0,317,447a3.47,3.47,0,0,0-2-.55h-6.5v9.44h4.85a1.73,1.73,0,0,0,1.28-.47,1.77,1.77,0,0,0,.47-1.31v-.29h.58V459H315v-.23a1.67,1.67,0,0,0-.47-1.39,2.07,2.07,0,0,0-1.28-.36h-4.85v9.76h6.4a10.88,10.88,0,0,0,1.57-.1,2.65,2.65,0,0,0,1.1-.39,1.71,1.71,0,0,0,.65-.82,3.89,3.89,0,0,0,.21-1.41v-2.23h1.29V468Z" transform="translate(-168.98 -357.59)"/><path class="cls-1" d="M334.48,467a5.85,5.85,0,0,1-4.05,1.29q-1.07,0-2-.06t-1.7-.18q-.81-.11-1.57-.26l-1.57-.27a1,1,0,0,0-.29-.07.25.25,0,0,0-.29.23q-.06.32-.1.45h-.91v-6.92h1.29v2.2a2.44,2.44,0,0,0,.53,1.55,4.2,4.2,0,0,0,1.49,1.15,9.21,9.21,0,0,0,2.23.73,13.88,13.88,0,0,0,2.76.26q3.68,0,3.68-3.36v-2.46a5.64,5.64,0,0,0-.15-1.36,2.19,2.19,0,0,0-.55-1,3,3,0,0,0-1.16-.7,8.76,8.76,0,0,0-2-.4h-2.75a8.23,8.23,0,0,1-2.57-.34,3.86,3.86,0,0,1-1.62-1,3.39,3.39,0,0,1-.82-1.57,9,9,0,0,1-.23-2.1v-3a4.8,4.8,0,0,1,1.26-3.57A4.89,4.89,0,0,1,327,445q1,0,1.84.06t1.58.18q.74.11,1.44.26l1.47.31a.94.94,0,0,0,.48.19.32.32,0,0,0,.29-.16,1.13,1.13,0,0,0,.19-.45h.87v6.24h-1.29v-1.91a2.32,2.32,0,0,0-.5-1.45,4.2,4.2,0,0,0-1.39-1.11,7.75,7.75,0,0,0-2.08-.71,12.79,12.79,0,0,0-2.55-.24q-3.39,0-3.39,3.39v2.58a3.12,3.12,0,0,0,.23,1.28,2,2,0,0,0,.7.82,3.58,3.58,0,0,0,1.2.5,12.44,12.44,0,0,0,1.73.27h2.84a12.44,12.44,0,0,1,2.68.57,4.06,4.06,0,0,1,1.6,1,3.05,3.05,0,0,1,.76,1.44,8.65,8.65,0,0,1,.19,1.94v3.3A4.78,4.78,0,0,1,334.48,467Z" transform="translate(-168.98 -357.59)"/><path class="cls-1" d="M346.13,466.8V468H338V466.8h2.55V446.45l-2.55,0v-1.23h8.11v1.23h-2.75v10l7.82-8.92a.85.85,0,0,0,.13-.42.46.46,0,0,0-.32-.45,5.51,5.51,0,0,0-2-.23v-1.23h7.56v1.23a7.13,7.13,0,0,0-2.07.24,5.58,5.58,0,0,0-1.58.82q-2,2.52-3.25,4t-1.63,1.86a1.37,1.37,0,0,0-.48.94,1.12,1.12,0,0,0,.23.65,13.26,13.26,0,0,1,1.81,1.44,10.45,10.45,0,0,1,1.24,1.45,12.12,12.12,0,0,1,1,1.62l.94,1.92a15.51,15.51,0,0,1,.61,1.5q.29.82.52,1.57t.49,1.75a2.16,2.16,0,0,0,1.16.55c.17,0,.4,0,.69,0l1,0V468h-8.37V466.8h2.62q-.26-1-.49-1.7t-.52-1.55a12.93,12.93,0,0,0-.61-1.47l-.68-1.44a12.32,12.32,0,0,0-.63-1.2,9.21,9.21,0,0,0-.81-1.13,11.26,11.26,0,0,0-1.24-1.24l-3.13.13v9.63Z" transform="translate(-168.98 -357.59)"/><path class="cls-1" d="M375,460.24a10.28,10.28,0,0,1-.5,3.3,7.23,7.23,0,0,1-1.44,2.54,6.49,6.49,0,0,1-2.26,1.63,7.33,7.33,0,0,1-3,.58h-2.52a7.32,7.32,0,0,1-3-.58,6.47,6.47,0,0,1-2.26-1.63,7.39,7.39,0,0,1-1.45-2.54,10,10,0,0,1-.52-3.3V453a10,10,0,0,1,.52-3.3,7.4,7.4,0,0,1,1.45-2.54,6.47,6.47,0,0,1,2.26-1.63,7.32,7.32,0,0,1,3-.58h2.52a7.33,7.33,0,0,1,3,.58,6.49,6.49,0,0,1,2.26,1.63,7.23,7.23,0,0,1,1.44,2.54,10.28,10.28,0,0,1,.5,3.3Zm-4-12.3a3.55,3.55,0,0,0-3.38-1.76h-2.13a3.59,3.59,0,0,0-3.41,1.74,10.93,10.93,0,0,0-1,5.24v6.95a10.93,10.93,0,0,0,1,5.24,3.59,3.59,0,0,0,3.41,1.74h2.13a3.55,3.55,0,0,0,3.38-1.76,11,11,0,0,0,1-5.22v-6.95A11,11,0,0,0,371,447.95Z" transform="translate(-168.98 -357.59)"/><path class="cls-1" d="M381.91,466.84h6a3.81,3.81,0,0,0,2.65-.68,2.87,2.87,0,0,0,.71-2l0-2.62h1.32l0,6.53H376.35V466.8h2.75V446.45l-2.75,0v-1.23h8.3v1.23h-2.75Z" transform="translate(-168.98 -357.59)"/><path class="cls-1" d="M414.42,468h-8.08V466.8H409l-1.87-6.46h-6.82L398.65,466a.82.82,0,0,0,.68.66,11.16,11.16,0,0,0,1.94.11V468h-6.66V466.8a6.7,6.7,0,0,0,1.65-.15,1.84,1.84,0,0,0,.87-.53L403.47,445h2L412,466.8h2.42Zm-10.73-19.61-3,10.73h6.17Z" transform="translate(-168.98 -357.59)"/></svg>